<svg id="visual" viewBox="0 0 900 600" width="900" height="600" xmlns="http://www.w3.org/2000/svg" xmlns:xlink="http://www.w3.org/1999/xlink" version="1.1"><rect x="0" y="0" width="900" height="600" fill="#F45050"></rect><defs><linearGradient id="grad1_0" x1="33.3%" y1="0%" x2="100%" y2="100%"><stop offset="20%" stop-color="#f45050" stop-opacity="1"></stop><stop offset="80%" stop-color="#f45050" stop-opacity="1"></stop></linearGradient></defs><defs><linearGradient id="grad2_0" x1="0%" y1="0%" x2="66.7%" y2="100%"><stop offset="20%" stop-color="#f45050" stop-opacity="1"></stop><stop offset="80%" stop-color="#f45050" stop-opacity="1"></stop></linearGradient></defs><g transform="translate(900, 0)"><path d="M0 486.7C-58 470.6 -115.9 454.4 -180.2 435.1C-244.6 415.9 -315.3 393.7 -344.2 344.2C-373.1 294.7 -360.2 218 -376.9 156.1C-393.7 94.2 -440.2 47.1 -486.7 0L0 0Z" fill="#3C486B"></path></g><g transform="translate(0, 600)"><path d="M0 -486.7C63.5 -477.2 127 -467.6 183.7 -443.5C240.4 -419.3 290.4 -380.6 336.6 -336.6C382.8 -292.6 425.3 -243.3 449.7 -186.3C474.1 -129.3 480.4 -64.6 486.7 0L0 0Z" fill="#3C486B"></path></g></svg>