<svg id="visual" viewBox="0 0 900 600" width="900" height="600" xmlns="http://www.w3.org/2000/svg" xmlns:xlink="http://www.w3.org/1999/xlink" version="1.1"><rect x="0" y="0" width="900" height="600" fill="#001220"></rect><defs><linearGradient id="grad1_0" x1="33.3%" y1="0%" x2="100%" y2="100%"><stop offset="20%" stop-color="#001220" stop-opacity="1"></stop><stop offset="80%" stop-color="#001220" stop-opacity="1"></stop></linearGradient></defs><defs><linearGradient id="grad2_0" x1="0%" y1="0%" x2="66.7%" y2="100%"><stop offset="20%" stop-color="#001220" stop-opacity="1"></stop><stop offset="80%" stop-color="#001220" stop-opacity="1"></stop></linearGradient></defs><g transform="translate(900, 0)"><path d="M0 486.7C-55.5 446.8 -111 406.9 -154.2 372.3C-197.5 337.7 -228.5 308.4 -282.1 282.1C-335.7 255.9 -411.8 232.8 -449.7 186.3C-487.6 139.8 -487.2 69.9 -486.7 0L0 0Z" fill="#FBAE3C"></path></g><g transform="translate(0, 600)"><path d="M0 -486.7C70.9 -487.7 141.9 -488.7 186.3 -449.7C230.7 -410.7 248.5 -331.8 280.7 -280.7C313 -229.6 359.6 -206.3 396.3 -164.2C433.1 -122 459.9 -61 486.7 0L0 0Z" fill="#FBAE3C"></path></g></svg>